<svg version="1.1" id="Layer_1" xmlns="http://www.w3.org/2000/svg" xmlns:xlink="http://www.w3.org/1999/xlink" x="0px" y="0px"
	 width="100%" viewBox="0 0 95 108" enable-background="new 0 0 95 108" xml:space="preserve">
<path fill="#072334" opacity="1.000000" stroke="none" 
	d="
M36.000000,19.000000 
	C37.565662,17.467628 39.131321,15.935256 40.847858,14.255217 
	C38.297085,13.061662 35.022625,11.389397 36.227966,6.843503 
	C37.121387,3.474032 43.991283,2.658697 45.437088,5.958396 
	C46.235474,7.780532 45.908684,10.095681 46.469681,12.168082 
	C49.089386,5.908370 52.530434,4.561364 57.157410,8.876024 
	C57.234295,9.830750 57.316101,10.030928 57.025581,10.226078 
	C56.163631,10.287766 55.674007,10.354481 54.830486,10.324648 
	C49.493721,13.011807 49.206879,14.259125 52.005875,18.815323 
	C53.220657,20.792740 54.020744,23.024918 54.678238,25.015694 
	C52.941395,23.804340 51.443878,22.817629 50.145672,21.615654 
	C44.888817,16.748478 39.553421,18.108496 36.682507,25.139648 
	C36.424873,26.517677 36.318016,27.832115 36.665016,29.013214 
	C38.668362,35.832150 44.014587,36.478443 49.967178,36.376579 
	C48.612244,38.815151 47.201775,40.898193 45.485649,43.143097 
	C42.186199,45.617569 41.066761,48.433777 42.984245,52.365555 
	C45.422802,56.388760 47.713852,60.072723 50.330925,64.280922 
	C52.608315,62.467438 54.473587,60.982124 56.673626,59.661583 
	C57.238327,59.921139 57.468262,60.015926 57.740932,60.365147 
	C57.831608,60.784752 57.879551,60.949928 57.951160,61.433670 
	C57.971275,62.390587 57.967724,63.028946 57.590263,63.710419 
	C54.303631,66.145195 51.390896,68.536842 48.225517,71.141418 
	C46.907795,74.113632 45.842716,76.872925 44.777634,79.632217 
	C45.295509,79.862625 45.813381,80.093040 46.331257,80.323448 
	C47.518253,78.867439 48.705250,77.411423 50.222328,75.912399 
	C52.108303,74.618416 53.664196,73.367439 55.919319,72.185646 
	C57.082294,72.320885 57.546043,72.386932 57.925900,72.816109 
	C57.566383,74.132072 57.290760,75.084908 56.687016,76.008820 
	C55.907452,76.986130 55.456013,77.992363 54.741936,79.241226 
	C53.828148,79.753082 53.176998,80.022293 52.285259,80.055023 
	C51.382767,79.721809 50.262733,79.345795 50.126411,79.569435 
	C47.225056,84.329147 44.366112,89.142654 47.032196,95.297363 
	C47.369061,95.358200 47.645164,95.156982 48.078529,94.751747 
	C48.301277,94.214439 48.366756,93.881142 48.747921,93.396988 
	C50.268822,90.110077 51.474037,86.974014 52.830410,83.815811 
	C52.981567,83.793671 53.236393,83.962250 53.536373,83.920731 
	C56.184399,81.334839 57.684227,82.781006 59.010536,84.992867 
	C58.997425,85.003914 58.975407,85.030998 58.666618,85.025230 
	C55.503689,85.133911 55.955727,86.550308 57.288788,88.033981 
	C58.018265,88.845886 59.085224,89.354576 60.000000,90.000000 
	C58.908508,90.516914 57.817013,91.033836 56.330254,90.998947 
	C55.653664,90.126656 55.372341,89.806160 55.091019,89.485664 
	C54.912285,89.684273 54.733543,89.882874 54.554806,90.081474 
	C55.036537,90.387650 55.518269,90.693825 56.000000,91.000000 
	C55.884811,92.201790 55.769623,93.403580 55.143707,95.120468 
	C53.421993,98.757042 52.210999,101.878517 51.000000,105.000000 
	C46.402073,109.791435 41.443348,106.087029 37.218159,104.824638 
	C29.039751,102.381104 21.357300,98.428688 15.511621,91.792297 
	C14.998859,91.210182 14.785530,90.364326 14.997786,89.165115 
	C16.037611,87.562904 16.512775,86.436546 17.281857,85.313507 
	C17.719154,85.183266 17.862534,85.049706 18.346750,84.893318 
	C20.458303,83.912209 22.229017,82.953918 24.360107,81.950348 
	C27.724174,80.332603 30.727867,78.760132 35.090927,76.476021 
	C33.048317,73.824272 31.648914,70.896370 29.327219,69.389053 
	C27.811253,68.404839 24.956869,69.482147 22.392269,69.390594 
	C21.729685,68.466011 21.376846,67.786858 21.428936,67.051987 
	C23.536106,66.642662 25.238350,66.289055 27.269070,65.867210 
	C27.107573,62.839970 26.964140,60.151344 26.827789,57.086685 
	C25.855371,55.493893 24.875875,54.277142 23.920429,53.045986 
	C23.944477,53.031582 23.923580,53.083607 23.913479,52.658581 
	C23.315321,51.340244 22.727262,50.446938 22.374207,49.357849 
	C23.032465,48.724594 23.455715,48.287125 23.919569,47.973412 
	C23.960173,48.097172 24.282223,48.140602 24.282223,48.140602 
	C24.282223,48.140602 23.870192,47.876030 23.901947,47.523026 
	C25.288015,45.577847 26.642328,43.985664 28.941124,41.283115 
	C26.722153,40.461815 24.962738,39.810608 23.144386,38.795876 
	C23.094793,37.696476 23.104143,36.960602 23.483112,36.203743 
	C24.815792,35.671726 25.921703,35.321789 26.714506,34.618763 
	C28.891279,32.688488 30.936590,30.609966 33.757118,27.893646 
	C33.761299,27.940771 33.647942,26.663332 33.617882,25.002811 
	C34.467453,22.746485 35.233727,20.873241 36.000000,19.000000 
M44.720501,66.355843 
	C43.613678,66.337456 41.676270,65.987648 41.530575,66.352768 
	C40.291782,69.457344 39.378895,72.691956 38.106838,76.484894 
	C38.227539,77.695190 38.348240,78.905495 38.608082,81.510979 
	C41.082821,77.567322 43.090565,74.845245 44.532185,71.850639 
	C45.165768,70.534523 44.646374,68.663361 44.720501,66.355843 
M35.517803,33.760120 
	C35.294666,33.532646 35.038750,33.486668 34.203560,33.454445 
	C33.482224,33.619183 32.760883,33.783924 31.343590,34.061543 
	C28.206181,38.139236 28.946604,40.607853 34.930386,43.787758 
	C40.387127,39.683865 40.432987,39.071251 35.517803,33.760120 
M25.922247,93.377724 
	C26.693800,94.181717 27.465355,94.985710 28.810249,96.149048 
	C31.210510,97.485977 33.610771,98.822899 36.497967,100.641777 
	C38.544392,101.590904 40.535267,102.713326 42.666901,103.396660 
	C43.429111,103.640999 44.531677,102.823608 45.478897,102.490829 
	C44.653202,101.993843 43.827503,101.496849 43.050835,100.234825 
	C40.911530,95.985001 38.772224,91.735168 36.750439,86.670555 
	C36.284855,84.832283 35.819267,82.994019 35.074192,80.052254 
	C33.172810,81.818863 32.079189,82.834961 30.325562,83.802101 
	C29.887493,83.751869 29.449423,83.701645 28.734306,83.475571 
	C28.362623,83.458023 28.127527,83.633904 27.546213,84.379044 
	C27.197456,84.868988 26.848698,85.358925 25.933619,86.193893 
	C26.028654,88.401314 26.123688,90.608742 25.922247,93.377724 
M36.917866,48.596287 
	C36.054325,48.844425 35.190788,49.092560 34.327248,49.340698 
	C34.708153,49.727268 35.089058,50.113842 35.469963,50.500416 
	C36.145245,49.733665 36.820526,48.966915 36.917866,48.596287 
z"/>
<path fill="#0E202F" opacity="1.000000" stroke="none" 
	d="
M22.139202,49.553627 
	C22.727262,50.446938 23.315321,51.340244 23.556519,52.379242 
	C20.876854,52.766983 18.544048,53.009037 16.379009,53.233685 
	C15.763416,55.038620 15.261104,56.511410 14.442799,57.996689 
	C13.414988,58.622993 12.703168,59.236813 11.772160,59.932407 
	C11.215546,60.061172 10.970180,60.236790 10.547677,60.694317 
	C10.217485,61.232704 10.156489,61.617802 10.005782,62.395065 
	C9.994193,63.851601 10.072314,64.915962 10.078574,66.381638 
	C11.222967,70.757393 12.439222,74.731834 13.659048,78.920914 
	C13.880963,79.496674 14.099308,79.857788 14.407845,80.568741 
	C15.328005,82.382454 16.157970,83.846313 16.987938,85.310181 
	C16.512775,86.436546 16.037611,87.562904 15.281225,88.844635 
	C13.280592,87.560852 10.987605,86.449615 9.944000,84.624130 
	C6.041969,77.798660 4.852755,70.224693 3.214775,62.552113 
	C1.434369,54.212391 4.248789,48.424343 7.718291,42.051468 
	C8.105540,41.340157 8.688879,40.735603 9.960423,40.041527 
	C11.945755,40.796204 13.151947,41.590893 14.142916,42.683933 
	C13.368517,45.176792 12.809341,47.371304 12.250166,49.565811 
	C14.254630,49.713638 16.257881,49.949997 18.263994,49.977470 
	C19.553555,49.995129 20.847321,49.705517 22.139202,49.553627 
M6.836927,52.973862 
	C5.845209,55.601791 6.791135,57.256855 9.541311,57.166630 
	C10.508101,57.134911 12.309201,55.502087 12.211824,54.815598 
	C11.821877,52.066532 10.102502,50.894745 6.836927,52.973862 
z"/>
<path fill="#144E5E" opacity="1.000000" stroke="none" 
	d="
M76.000000,18.000000 
	C75.809448,18.823303 75.618912,19.646610 75.322609,20.926876 
	C75.471336,21.065403 76.357819,21.891071 77.337616,22.803658 
	C77.901405,22.336905 78.418907,22.126457 78.524071,21.787920 
	C79.662766,18.122349 82.237221,16.736040 85.756012,17.748276 
	C89.907532,18.942532 90.818680,22.280296 89.912041,26.040382 
	C89.042236,29.647736 86.141884,30.966293 82.735718,30.710159 
	C80.827492,30.566668 78.980026,29.614952 76.691971,28.659416 
	C76.488075,30.198893 76.697388,32.106350 76.946777,34.251907 
	C76.986855,34.490013 77.042809,34.969666 76.703705,34.974617 
	C74.557785,34.349171 72.750961,33.718769 71.241081,32.851364 
	C74.373207,27.183973 73.214066,24.125114 67.086533,20.070904 
	C68.186226,18.855497 69.093109,17.927750 70.249550,16.876133 
	C70.995094,16.498302 71.491089,16.244337 72.156128,16.220238 
	C72.345581,16.822554 72.365990,17.194998 72.417007,17.560009 
	C72.447624,17.552572 72.301918,17.498251 72.741455,17.385439 
	C74.079140,17.182289 74.977295,17.091953 75.901901,17.251797 
	C75.952232,17.667984 75.976112,17.833992 76.000000,18.000000 
z"/>
<path fill="#19859C" opacity="1.000000" stroke="none" 
	d="
M23.113493,36.224731 
	C23.104143,36.960602 23.094793,37.696476 22.934830,39.050522 
	C21.877104,40.189419 20.969994,40.710144 19.977489,40.867016 
	C18.453211,36.748516 16.449461,33.588013 12.000000,33.000000 
	C9.002350,31.329960 10.794166,28.954611 12.336973,28.894567 
	C18.504396,28.654547 20.995705,22.877098 25.775879,20.785347 
	C27.989073,19.816875 30.488705,19.502975 32.916939,19.834385 
	C32.697239,22.291126 32.419075,23.805803 31.926208,25.569962 
	C29.047150,27.647070 26.140173,29.221365 23.837509,31.426653 
	C22.912697,32.312359 23.315142,34.583931 23.113493,36.224731 
z"/>
<path fill="#194256" opacity="1.000000" stroke="none" 
	d="
M70.000000,89.000000 
	C69.846474,87.502823 69.692955,86.005653 69.636780,83.963890 
	C69.493523,82.615768 69.252914,81.812233 69.348999,81.050179 
	C70.655495,82.077507 71.508438,83.246964 72.645210,83.970467 
	C73.199982,84.323555 74.283798,83.845428 75.414017,83.908913 
	C76.743446,85.437309 77.787010,86.800331 78.934982,88.466507 
	C79.692924,89.846428 80.346466,90.923218 81.000000,92.000000 
	C81.007080,92.925705 81.393501,94.383141 80.960533,94.692024 
	C77.822304,96.930847 74.518700,98.937851 70.749603,100.507706 
	C69.154518,98.998131 68.077263,97.999069 67.000000,97.000000 
	C68.567230,95.449272 70.134453,93.898537 71.772865,91.877167 
	C71.229370,90.604355 70.614685,89.802177 70.000000,89.000000 
z"/>
<path fill="#082F3C" opacity="1.000000" stroke="none" 
	d="
M69.012314,81.008698 
	C69.252914,81.812233 69.493523,82.615768 69.867065,83.709656 
	C67.839470,87.207024 67.314293,87.107910 63.726685,82.107323 
	C62.159630,79.938927 60.600025,78.480659 59.416279,77.012054 
	C61.178497,76.610931 62.564857,76.220139 63.951218,75.829346 
	C63.482018,74.400795 63.394997,72.233086 62.441956,71.740326 
	C61.373119,71.187691 59.521069,72.149879 58.009792,72.452972 
	C57.546043,72.386932 57.082294,72.320885 56.010307,71.913864 
	C56.572941,69.967690 57.743816,68.362473 58.997002,66.628815 
	C59.079315,66.500366 59.261868,66.255905 59.627319,66.292862 
	C60.475246,66.236794 60.957718,66.143784 61.517540,66.039078 
	C61.594894,66.027382 61.735188,65.958107 61.824718,66.304306 
	C64.418083,69.591347 66.921913,72.532181 69.550011,75.765991 
	C69.845222,76.667877 70.016167,77.276794 69.892960,78.015297 
	C68.913536,78.999184 65.548653,79.304703 69.012314,81.008698 
z"/>
<path fill="#3BD5C8" opacity="1.000000" stroke="none" 
	d="
M77.042809,34.969666 
	C77.042809,34.969666 76.986855,34.490013 77.029564,33.943199 
	C77.714851,32.930923 78.357422,32.465462 79.000000,32.000000 
	C79.949066,32.419037 80.898140,32.838070 81.453003,33.920036 
	C81.372536,35.055305 81.686272,35.527653 82.125397,36.204903 
	C82.453156,36.666672 82.702888,36.863403 83.000000,37.000000 
	C88.869896,39.578449 91.412491,43.806881 89.239868,48.995010 
	C87.266495,49.436481 86.199913,49.768116 85.050552,49.748161 
	C83.391907,47.250969 81.816032,45.105370 80.193314,42.577850 
	C79.432899,40.147415 78.719322,38.098900 77.917572,35.813622 
	C77.567207,35.374462 77.305008,35.172062 77.042809,34.969666 
z"/>
<path fill="#17465B" opacity="1.000000" stroke="none" 
	d="
M90.000000,50.000000 
	C91.130608,49.773464 93.161850,49.163940 93.253410,49.379257 
	C94.239128,51.697239 95.284225,54.111465 95.511963,56.573460 
	C95.609856,57.631741 93.838173,58.862961 92.159874,59.976280 
	C91.013000,60.019222 90.622124,60.101482 90.009132,60.190437 
	C89.488754,60.271931 89.245483,60.430878 88.832901,60.800880 
	C88.452881,61.000393 88.297165,61.072994 87.876923,61.007240 
	C87.414665,60.865501 87.216927,60.862114 86.787445,60.643528 
	C85.364716,59.585178 84.173729,58.742035 82.991318,57.507271 
	C82.971581,56.333260 82.943275,55.550865 82.917953,54.436619 
	C83.538223,53.034344 84.155510,51.963921 85.135033,50.979378 
	C86.826920,52.457249 88.156563,53.849232 89.486206,55.241215 
	C89.775780,54.930882 90.065353,54.620548 90.354935,54.310211 
	C90.236618,52.873474 90.118309,51.436737 90.000000,50.000000 
z"/>
<path fill="#30CBC7" opacity="1.000000" stroke="none" 
	d="
M12.000000,33.000000 
	C16.449461,33.588013 18.453211,36.748516 19.939774,40.809731 
	C19.987452,41.116295 20.079678,41.016273 19.862534,41.127018 
	C19.377777,41.435917 19.178513,41.688076 18.830021,42.212318 
	C17.194347,42.415459 15.776242,42.400520 14.358139,42.385582 
	C13.151947,41.590893 11.945755,40.796204 10.369781,40.000759 
	C6.610102,37.812752 6.784843,35.569351 10.657103,33.520172 
	C11.687366,33.563496 11.880677,33.309956 12.000000,33.000000 
z"/>
<path fill="#10373F" opacity="1.000000" stroke="none" 
	d="
M69.932770,16.560066 
	C69.093109,17.927750 68.186226,18.855497 66.718330,20.072620 
	C65.015823,21.253149 63.874317,22.144302 62.459602,22.983051 
	C61.125443,22.954330 60.064491,22.978016 58.892067,22.682613 
	C58.835297,21.916822 58.889996,21.470118 59.263695,20.808008 
	C62.370285,15.723850 61.974789,13.908704 57.522354,9.943997 
	C57.811951,9.432725 57.905975,9.216363 58.000000,9.000000 
	C62.897533,6.658129 64.881416,8.213998 66.016991,15.200451 
	C67.326828,15.513461 68.596184,15.816796 69.932770,16.560066 
z"/>
<path fill="#204055" opacity="1.000000" stroke="none" 
	d="
M59.023643,84.981819 
	C57.684227,82.781006 56.184399,81.334839 53.291855,83.626755 
	C52.673523,82.346695 52.599686,81.319099 52.525848,80.291504 
	C53.176998,80.022293 53.828148,79.753082 55.070164,79.329285 
	C58.107357,80.783134 60.553677,82.391571 63.000000,84.000000 
	C65.819054,83.960709 66.631004,85.023453 64.164169,87.277420 
	C62.946022,87.718338 62.473011,88.359169 62.000004,89.000000 
	C61.528667,89.585365 61.057331,90.170723 60.292999,90.378036 
	C59.085224,89.354576 58.018265,88.845886 57.288788,88.033981 
	C55.955727,86.550308 55.503689,85.133911 58.716324,85.150276 
	C59.156052,85.323807 59.237286,85.366516 59.318520,85.409233 
	C59.220226,85.266762 59.121933,85.124290 59.023643,84.981819 
z"/>
<path fill="#39505C" opacity="1.000000" stroke="none" 
	d="
M69.925568,88.443848 
	C70.614685,89.802177 71.229370,90.604355 71.922028,91.703262 
	C68.498718,94.182549 65.070152,96.501060 61.439964,98.442581 
	C60.632305,98.874527 58.531742,98.347305 58.063889,97.606506 
	C57.401157,96.557129 57.272041,94.754814 57.683838,93.533569 
	C58.428886,91.324028 67.165932,87.512077 69.925568,88.443848 
z"/>
<path fill="#27414F" opacity="1.000000" stroke="none" 
	d="
M66.723419,96.667351 
	C68.077263,97.999069 69.154518,98.998131 70.615891,99.998596 
	C71.130302,100.101974 71.374367,100.203941 71.374359,100.305916 
	C71.374313,103.258553 69.474831,104.713638 61.950012,106.571426 
	C60.357178,106.964684 58.396454,105.867821 56.605232,105.457535 
	C57.234489,103.646866 57.339630,101.168053 58.608467,100.172729 
	C60.847233,98.416573 63.795563,97.564972 66.723419,96.667351 
M65.450584,100.489944 
	C65.450584,100.489944 65.517776,100.457138 65.450584,100.489944 
z"/>
<path fill="#D7E4E8" opacity="1.000000" stroke="none" 
	d="
M63.538712,84.309647 
	C60.553677,82.391571 58.107357,80.783134 55.332802,79.086647 
	C55.456013,77.992363 55.907452,76.986130 56.861916,76.249725 
	C57.923435,76.687164 58.481930,76.854782 59.040421,77.022392 
	C60.600025,78.480659 62.159630,79.938927 63.859619,81.698593 
	C64.025810,82.873093 64.051613,83.746193 63.538712,84.309647 
z"/>
<path fill="#49CFC9" opacity="1.000000" stroke="none" 
	d="
M89.000000,79.000000 
	C92.193932,81.701759 91.450104,83.950798 85.932098,85.430359 
	C84.288765,84.906845 83.434204,84.844170 82.641830,84.497879 
	C82.814438,83.844002 82.924858,83.473763 83.244843,82.974243 
	C83.707260,82.594284 83.808647,82.292694 83.851273,81.745651 
	C83.943977,81.551117 84.054741,81.134598 84.262642,80.998459 
	C84.716034,80.598419 84.803070,80.289841 84.833092,79.668167 
	C85.016739,79.026726 85.098946,78.653694 85.410095,78.058350 
	C86.105530,76.890419 86.572029,75.944786 87.237595,75.208588 
	C87.937737,76.590706 88.438805,77.763390 88.954910,78.952057 
	C88.969940,78.968040 89.000000,79.000000 89.000000,79.000000 
z"/>
<path fill="#49CFC9" opacity="1.000000" stroke="none" 
	d="
M90.231255,60.183743 
	C90.622124,60.101482 91.013000,60.019222 91.701935,59.968479 
	C93.018990,61.399776 94.999268,62.884495 94.884445,64.184082 
	C94.468910,68.886658 93.451439,73.550415 92.392090,78.167091 
	C92.222198,78.907463 90.677528,79.332367 89.384201,79.451553 
	C89.000000,79.000000 88.969940,78.968040 88.988167,78.557083 
	C89.342377,72.417839 89.678352,66.689537 90.068588,60.766876 
	C90.122849,60.572510 90.231255,60.183743 90.231255,60.183743 
z"/>
<path fill="#3CB6BD" opacity="1.000000" stroke="none" 
	d="
M82.579651,84.781502 
	C83.434204,84.844170 84.288765,84.906845 85.571655,84.984756 
	C88.093765,88.099823 86.575600,90.777206 81.285690,92.405083 
	C80.346466,90.923218 79.692924,89.846428 79.224243,88.410904 
	C79.580246,87.956413 79.751389,87.860664 80.133286,87.719154 
	C80.613953,87.494545 80.727615,87.244621 80.806656,86.757607 
	C80.928284,86.591591 81.072342,86.206032 81.311226,86.075333 
	C81.696709,85.622620 81.843307,85.300606 82.133919,84.919083 
	C82.277931,84.859566 82.579651,84.781502 82.579651,84.781502 
z"/>
<path fill="#B9C7D3" opacity="1.000000" stroke="none" 
	d="
M51.168785,105.550323 
	C52.210999,101.878517 53.421993,98.757042 54.816494,95.317780 
	C57.103340,92.045120 58.236931,93.970459 58.894791,95.967155 
	C59.984924,99.275887 55.093666,105.666069 51.168785,105.550323 
z"/>
<path fill="#275C68" opacity="1.000000" stroke="none" 
	d="
M90.234787,49.596622 
	C90.118309,51.436737 90.236618,52.873474 90.354935,54.310211 
	C90.065353,54.620548 89.775780,54.930882 89.486206,55.241215 
	C88.156563,53.849232 86.826920,52.457249 85.223480,50.780167 
	C84.949684,50.495068 85.133324,50.099751 85.133324,50.099754 
	C86.199913,49.768116 87.266495,49.436481 88.666542,49.052422 
	C89.489853,49.064415 89.979713,49.128830 90.234787,49.596622 
z"/>
<path fill="#10373F" opacity="1.000000" stroke="none" 
	d="
M71.987083,15.990372 
	C71.491089,16.244337 70.995094,16.498302 70.249550,16.876133 
	C66.456299,14.495184 68.693932,11.960420 70.533630,10.299940 
	C72.589897,8.443985 74.820251,9.232164 75.936905,12.532857 
	C75.984695,13.015330 75.969360,13.030660 75.607521,13.032667 
	C74.159485,14.019908 73.073288,15.005141 71.987083,15.990372 
z"/>
<path fill="#2C90A4" opacity="1.000000" stroke="none" 
	d="
M32.140911,25.320478 
	C32.419075,23.805803 32.697239,22.291126 32.987701,20.388226 
	C31.618847,16.643549 33.707703,17.243649 35.824810,18.338102 
	C35.233727,20.873241 34.467453,22.746485 33.387676,25.067612 
	C32.766582,25.433762 32.455494,25.368757 32.140911,25.320478 
z"/>
<path fill="#54C3C1" opacity="1.000000" stroke="none" 
	d="
M79.376175,31.762444 
	C78.357422,32.465462 77.714851,32.930923 76.989487,33.705093 
	C76.697388,32.106350 76.488075,30.198893 76.639374,28.145718 
	C77.917450,29.174963 78.834892,30.349928 79.376175,31.762444 
z"/>
<path fill="#10373F" opacity="1.000000" stroke="none" 
	d="
M76.478653,18.258163 
	C75.976112,17.833992 75.952232,17.667984 75.944626,16.855373 
	C75.963722,15.149402 75.966545,14.090031 75.969360,13.030660 
	C75.969360,13.030660 75.984695,13.015330 75.992348,13.007666 
	C77.194199,13.745298 78.388390,14.490598 79.582588,15.235898 
	C78.707497,16.329374 77.832397,17.422852 76.478653,18.258163 
z"/>
<path fill="#072334" opacity="1.000000" stroke="none" 
	d="
M62.377571,89.256905 
	C62.473011,88.359169 62.946022,87.718338 63.709518,87.038750 
	C63.585045,87.837936 63.170090,88.675873 62.377571,89.256905 
z"/>
<path fill="#54C3C1" opacity="1.000000" stroke="none" 
	d="
M82.566498,35.714897 
	C81.686272,35.527653 81.372536,35.055305 81.029404,34.291481 
	C81.710999,34.476597 82.421989,34.953197 82.566498,35.714897 
z"/>
<path fill="#54C3C1" opacity="1.000000" stroke="none" 
	d="
M83.234787,36.596622 
	C82.702888,36.863403 82.453156,36.666672 82.125397,36.204903 
	C82.489853,36.064415 82.979713,36.128830 83.234787,36.596622 
z"/>
<path fill="#19859C" opacity="1.000000" stroke="none" 
	d="
M11.596624,32.765213 
	C11.880677,33.309956 11.687366,33.563496 11.210034,33.880310 
	C11.064416,33.510139 11.128832,33.020283 11.596624,32.765213 
z"/>
<path fill="#49A28E" opacity="1.000000" stroke="none" 
	d="
M57.750000,8.774326 
	C57.905975,9.216363 57.811951,9.432725 57.539429,9.925381 
	C57.360935,10.201674 57.397903,10.231105 57.397903,10.231105 
	C57.316101,10.030928 57.234295,9.830750 57.076241,9.315286 
	C57.166668,8.849550 57.333332,8.699100 57.750000,8.774326 
z"/>
<path fill="#F5FBFC" opacity="1.000000" stroke="none" 
	d="
M45.791306,42.981232 
	C47.201775,40.898193 48.612244,38.815151 50.310696,36.348736 
	C51.416069,35.365597 52.233456,34.765835 53.464203,34.112770 
	C56.510681,33.690735 59.143799,33.321991 61.163044,33.039219 
	C64.231270,34.472942 67.038391,35.784657 69.889847,37.510239 
	C69.616875,40.264870 69.299561,42.605640 68.562462,45.015553 
	C66.569984,45.084698 64.997292,45.084698 63.135246,45.084698 
	C63.234772,47.034767 63.307594,48.461628 63.266777,50.231049 
	C63.176144,54.885387 65.842216,51.130318 67.395103,51.915638 
	C68.464447,52.003693 69.181488,52.024155 69.944283,52.445450 
	C70.086464,55.392643 70.480576,57.972309 70.200310,60.476501 
	C69.884300,63.300068 68.164963,63.533695 66.075012,61.424881 
	C65.048126,60.459778 64.028671,59.880260 62.710751,59.142502 
	C61.914318,58.325401 61.416351,57.666546 60.844254,56.596703 
	C60.327019,52.608242 59.883915,49.030773 59.500553,45.935623 
	C54.739586,44.909618 50.265446,43.945423 45.791306,42.981232 
z"/>
<path fill="#EFF4F6" opacity="1.000000" stroke="none" 
	d="
M14.758793,57.984203 
	C15.261104,56.511410 15.763416,55.038620 16.379009,53.233685 
	C18.544048,53.009037 20.876854,52.766983 23.566620,52.804268 
	C23.923580,53.083607 23.944477,53.031582 23.925747,53.392746 
	C24.878244,54.990181 25.849476,56.226452 26.820705,57.462719 
	C26.964140,60.151344 27.107573,62.839970 27.269070,65.867210 
	C25.238350,66.289055 23.536106,66.642662 21.072826,66.886703 
	C18.010281,67.173294 15.708769,67.569450 13.222864,67.597748 
	C12.075792,66.813377 11.113113,66.396858 10.150436,65.980331 
	C10.072314,64.915962 9.994193,63.851601 10.199100,62.191010 
	C10.593709,61.243530 10.705291,60.892281 10.816873,60.541027 
	C10.970180,60.236790 11.215546,60.061172 12.078140,59.976307 
	C13.321806,59.287025 14.040299,58.635612 14.758793,57.984203 
z"/>
<path fill="#193C52" opacity="1.000000" stroke="none" 
	d="
M45.485649,43.143097 
	C50.265446,43.945423 54.739586,44.909618 59.500553,45.935623 
	C59.883915,49.030773 60.327019,52.608242 60.544815,56.491119 
	C59.242725,56.184265 58.165947,55.572002 56.960533,54.595802 
	C52.301079,52.644939 47.992710,49.646442 42.836739,52.026314 
	C41.066761,48.433777 42.186199,45.617569 45.485649,43.143097 
z"/>
<path fill="#F0F5F7" opacity="1.000000" stroke="none" 
	d="
M22.702015,69.636017 
	C24.956869,69.482147 27.811253,68.404839 29.327219,69.389053 
	C31.648914,70.896370 33.048317,73.824272 35.090927,76.476021 
	C30.727867,78.760132 27.724174,80.332603 24.306877,81.608551 
	C21.916058,79.540398 19.938847,77.768768 18.143288,75.767715 
	C18.888916,75.010460 19.452894,74.482620 20.246668,73.719604 
	C21.218315,72.201630 21.960165,70.918823 22.702015,69.636017 
z"/>
<path fill="#C9D9E1" opacity="1.000000" stroke="none" 
	d="
M42.984245,52.365555 
	C47.992710,49.646442 52.301079,52.644939 56.885750,54.962166 
	C56.829182,56.679279 56.718773,57.666096 56.467896,58.840542 
	C56.327431,59.028175 56.338860,59.496811 56.338860,59.496811 
	C54.473587,60.982124 52.608315,62.467438 50.330925,64.280922 
	C47.713852,60.072723 45.422802,56.388760 42.984245,52.365555 
z"/>
<path fill="#E5F1F3" opacity="1.000000" stroke="none" 
	d="
M14.142916,42.683933 
	C15.776242,42.400520 17.194347,42.415459 19.113689,42.174889 
	C19.769844,41.618340 19.924761,41.317307 20.079678,41.016273 
	C20.079678,41.016273 19.987452,41.116295 20.025167,41.173584 
	C20.969994,40.710144 21.877104,40.189419 22.993771,39.414047 
	C24.962738,39.810608 26.722153,40.461815 28.941124,41.283115 
	C26.642328,43.985664 25.288015,45.577847 23.973904,47.543171 
	C24.014103,47.916317 23.878967,47.849655 23.878967,47.849655 
	C23.455715,48.287125 23.032465,48.724594 22.374207,49.357849 
	C20.847321,49.705517 19.553555,49.995129 18.263994,49.977470 
	C16.257881,49.949997 14.254630,49.713638 12.250166,49.565811 
	C12.809341,47.371304 13.368517,45.176792 14.142916,42.683933 
z"/>
<path fill="#1CB2BB" opacity="1.000000" stroke="none" 
	d="
M36.632919,87.485344 
	C38.772224,91.735168 40.911530,95.985001 42.686699,100.659714 
	C41.202293,100.463470 40.082024,99.842331 39.009277,98.841202 
	C37.110630,95.570770 35.275612,92.591972 33.113983,89.872826 
	C32.732941,89.393501 30.986410,89.999702 29.592306,89.916206 
	C28.376078,88.434830 27.438009,87.141853 26.499939,85.848869 
	C26.848698,85.358925 27.197456,84.868988 28.051704,84.155357 
	C28.708584,83.838249 28.859970,83.744835 29.011354,83.651413 
	C29.449423,83.701645 29.887493,83.751869 30.745323,84.181671 
	C32.987698,85.535942 34.810307,86.510643 36.632919,87.485344 
z"/>
<path fill="#DCEEF2" opacity="1.000000" stroke="none" 
	d="
M37.042919,25.014471 
	C39.553421,18.108496 44.888817,16.748478 50.145672,21.615654 
	C51.443878,22.817629 52.941395,23.804340 54.680321,25.266666 
	C55.091766,25.791203 55.170181,25.939081 55.215515,26.453686 
	C53.140362,26.183294 51.098286,25.546179 48.943027,24.585773 
	C44.037563,21.225483 42.533329,21.676674 39.547623,26.910213 
	C38.518154,26.245695 37.780537,25.630083 37.042919,25.014471 
z"/>
<path fill="#49A28E" opacity="1.000000" stroke="none" 
	d="
M55.248592,26.086962 
	C55.170181,25.939081 55.091766,25.791203 55.011269,25.392353 
	C54.020744,23.024918 53.220657,20.792740 52.005875,18.815323 
	C49.206879,14.259125 49.493721,13.011807 54.792915,10.724759 
	C54.776211,15.119326 54.753582,18.895775 58.944698,21.023415 
	C58.889996,21.470118 58.835297,21.916822 58.908020,23.069176 
	C57.773155,24.545538 56.510876,25.316250 55.248592,26.086962 
z"/>
<path fill="#B4C9D8" opacity="1.000000" stroke="none" 
	d="
M36.682507,25.139648 
	C37.780537,25.630083 38.518154,26.245695 39.648262,27.277176 
	C40.755451,31.636654 43.032417,33.329037 47.073071,32.827179 
	C48.305782,32.674072 49.609119,33.089600 51.051941,33.506737 
	C51.832794,33.901199 52.441822,34.033634 53.050846,34.166069 
	C52.233456,34.765835 51.416069,35.365597 50.255161,35.993202 
	C44.014587,36.478443 38.668362,35.832150 36.665016,29.013214 
	C36.318016,27.832115 36.424873,26.517677 36.682507,25.139648 
z"/>
<path fill="#1F4156" opacity="1.000000" stroke="none" 
	d="
M22.392269,69.390594 
	C21.960165,70.918823 21.218315,72.201630 19.859535,73.698288 
	C18.215336,73.865936 17.188063,73.819740 16.090693,73.882507 
	C16.020594,73.991463 16.147173,73.765930 15.947631,73.519318 
	C14.967812,71.503662 14.187534,69.734634 13.407257,67.965607 
	C15.708769,67.569450 18.010281,67.173294 20.667900,66.942429 
	C21.376846,67.786858 21.729685,68.466011 22.392269,69.390594 
z"/>
<path fill="#085D71" opacity="1.000000" stroke="none" 
	d="
M26.216780,86.021378 
	C27.438009,87.141853 28.376078,88.434830 29.670410,90.253967 
	C32.351986,93.508095 34.677296,96.236061 36.890362,99.202347 
	C36.522423,99.680382 36.266727,99.920105 36.011032,100.159828 
	C33.610771,98.822899 31.210510,97.485977 28.468334,95.649658 
	C27.490519,94.372238 26.854622,93.594200 26.218723,92.816162 
	C26.123688,90.608742 26.028654,88.401314 26.216780,86.021378 
z"/>
<path fill="#D7F0F4" opacity="1.000000" stroke="none" 
	d="
M31.926208,25.569962 
	C32.455494,25.368757 32.766582,25.433762 33.304379,25.450695 
	C33.647942,26.663332 33.761299,27.940771 33.757118,27.893646 
	C30.936590,30.609966 28.891279,32.688488 26.714506,34.618763 
	C25.921703,35.321789 24.815792,35.671726 23.483112,36.203743 
	C23.315142,34.583931 22.912697,32.312359 23.837509,31.426653 
	C26.140173,29.221365 29.047150,27.647070 31.926208,25.569962 
z"/>
<path fill="#E5EAEE" opacity="1.000000" stroke="none" 
	d="
M17.961636,75.997147 
	C19.938847,77.768768 21.916058,79.540398 23.946501,81.653824 
	C22.229017,82.953918 20.458303,83.912209 18.285362,84.523323 
	C16.694641,82.857063 15.506147,81.537979 14.317654,80.218903 
	C14.099308,79.857788 13.880963,79.496674 13.829253,78.552200 
	C14.712983,76.567871 15.430078,75.166901 16.147173,73.765930 
	C16.147173,73.765930 16.020594,73.991463 16.098240,74.210037 
	C16.771137,74.951447 17.366388,75.474297 17.961636,75.997147 
z"/>
<path fill="#9ADF9F" opacity="1.000000" stroke="none" 
	d="
M59.263695,20.808008 
	C54.753582,18.895775 54.776211,15.119326 55.146812,10.821306 
	C55.674007,10.354481 56.163631,10.287766 57.025581,10.226078 
	C57.397903,10.231105 57.360935,10.201674 57.343857,10.220291 
	C61.974789,13.908704 62.370285,15.723850 59.263695,20.808008 
z"/>
<path fill="#8CD6A6" opacity="1.000000" stroke="none" 
	d="
M32.039547,33.948666 
	C32.760883,33.783924 33.482224,33.619183 34.575615,33.697880 
	C35.151810,34.113903 35.386520,34.183826 35.651814,34.151085 
	C40.432987,39.071251 40.387127,39.683865 34.575481,43.397938 
	C33.493568,39.988300 32.766556,36.968483 32.039547,33.948666 
z"/>
<path fill="#C3E3ED" opacity="1.000000" stroke="none" 
	d="
M52.285259,80.055023 
	C52.599686,81.319099 52.673523,82.346695 52.991875,83.668274 
	C53.236393,83.962250 52.981567,83.793671 52.490734,83.881271 
	C50.810677,87.161865 49.621456,90.354858 48.432236,93.547852 
	C48.366756,93.881142 48.301277,94.214439 47.839336,94.750595 
	C47.442879,94.953453 46.971432,95.035301 46.971432,95.035301 
	C44.366112,89.142654 47.225056,84.329147 50.126411,79.569435 
	C50.262733,79.345795 51.382767,79.721809 52.285259,80.055023 
z"/>
<path fill="#253749" opacity="1.000000" stroke="none" 
	d="
M63.009216,59.300751 
	C64.028671,59.880260 65.048126,60.459778 66.038246,61.825638 
	C65.981392,63.148148 65.953880,63.684311 65.639236,64.193909 
	C64.769241,64.662529 64.186378,65.157700 63.290176,65.701828 
	C62.562950,65.819893 62.149067,65.889000 61.735188,65.958107 
	C61.735188,65.958107 61.594894,66.027382 61.273293,65.848663 
	C60.408092,65.431244 59.864498,65.192535 59.112347,64.721375 
	C58.590580,64.215057 58.277374,63.941181 57.964165,63.667301 
	C57.967724,63.028946 57.971275,62.390587 58.305611,61.409485 
	C60.093998,60.478073 61.551609,59.889412 63.009216,59.300751 
z"/>
<path fill="#C4D3DB" opacity="1.000000" stroke="none" 
	d="
M59.416283,77.012054 
	C58.481930,76.854782 57.923435,76.687164 57.190041,76.278648 
	C57.290760,75.084908 57.566383,74.132072 57.925900,72.816101 
	C59.521069,72.149879 61.373119,71.187691 62.441956,71.740326 
	C63.394997,72.233086 63.482018,74.400795 63.951218,75.829346 
	C62.564857,76.220139 61.178497,76.610931 59.416283,77.012054 
z"/>
<path fill="#4EA5B6" opacity="1.000000" stroke="none" 
	d="
M44.650482,67.044212 
	C44.646374,68.663361 45.165768,70.534523 44.532185,71.850639 
	C43.090565,74.845245 41.082821,77.567322 38.608082,81.510979 
	C38.348240,78.905495 38.227539,77.695190 38.516277,76.257767 
	C40.833969,73.035164 42.742226,70.039688 44.650482,67.044212 
z"/>
<path fill="#D3F6F7" opacity="1.000000" stroke="none" 
	d="
M57.590263,63.710419 
	C58.277374,63.941181 58.590580,64.215057 59.077721,65.045410 
	C59.255058,65.819893 59.258465,66.037903 59.261868,66.255905 
	C59.261868,66.255905 59.079315,66.500366 58.633453,66.655891 
	C55.831799,68.278694 53.476013,69.745972 50.681267,71.154907 
	C49.654259,71.040535 49.066212,70.984512 48.478161,70.928497 
	C51.390896,68.536842 54.303631,66.145195 57.590263,63.710419 
z"/>
<path fill="#48AFB0" opacity="1.000000" stroke="none" 
	d="
M51.120224,71.213249 
	C53.476013,69.745972 55.831799,68.278694 58.551140,66.784332 
	C57.743816,68.362473 56.572941,69.967690 55.311077,71.844681 
	C53.664196,73.367439 52.108303,74.618416 50.229633,75.553497 
	C50.311314,73.896149 50.715771,72.554695 51.120224,71.213249 
z"/>
<path fill="#B3E0E9" opacity="1.000000" stroke="none" 
	d="
M44.685493,66.700027 
	C42.742226,70.039688 40.833969,73.035164 38.647018,75.959122 
	C39.378895,72.691956 40.291782,69.457344 41.530575,66.352768 
	C41.676270,65.987648 43.613678,66.337456 44.685493,66.700027 
z"/>
<path fill="#A5CAD6" opacity="1.000000" stroke="none" 
	d="
M50.681267,71.154907 
	C50.715771,72.554695 50.311314,73.896149 49.899551,75.596504 
	C48.705250,77.411423 47.518253,78.867439 46.331257,80.323448 
	C45.813381,80.093040 45.295509,79.862625 44.777634,79.632217 
	C45.842716,76.872925 46.907795,74.113632 48.225517,71.141418 
	C49.066212,70.984512 49.654259,71.040535 50.681267,71.154907 
z"/>
<path fill="#62B5C6" opacity="1.000000" stroke="none" 
	d="
M48.747921,93.396988 
	C49.621456,90.354858 50.810677,87.161865 52.339577,83.903412 
	C51.474037,86.974014 50.268822,90.110077 48.747921,93.396988 
z"/>
<path fill="#064560" opacity="1.000000" stroke="none" 
	d="
M36.691681,87.077950 
	C34.810307,86.510643 32.987698,85.535942 31.075329,84.206146 
	C32.079189,82.834961 33.172810,81.818863 35.074192,80.052254 
	C35.819267,82.994019 36.284855,84.832283 36.691681,87.077950 
z"/>
<path fill="#288475" opacity="1.000000" stroke="none" 
	d="
M31.691568,34.005104 
	C32.766556,36.968483 33.493568,39.988300 34.239483,43.393890 
	C28.946604,40.607853 28.206181,38.139236 31.691568,34.005104 
z"/>
<path fill="#3C6176" opacity="1.000000" stroke="none" 
	d="
M62.710751,59.142502 
	C61.551609,59.889412 60.093998,60.478073 58.281937,61.090919 
	C57.879551,60.949928 57.831608,60.784752 57.673744,60.054337 
	C57.245335,59.210369 56.926849,58.931641 56.608364,58.652908 
	C56.718773,57.666096 56.829182,56.679279 57.014378,55.326103 
	C58.165947,55.572002 59.242725,56.184265 60.618946,56.902115 
	C61.416351,57.666546 61.914318,58.325401 62.710751,59.142502 
z"/>
<path fill="#0B3545" opacity="1.000000" stroke="none" 
	d="
M36.254498,100.400803 
	C36.266727,99.920105 36.522423,99.680382 37.218246,99.243225 
	C38.092831,99.104263 38.527294,99.162727 38.961754,99.221191 
	C40.082024,99.842331 41.202293,100.463470 42.662186,101.042236 
	C43.827503,101.496849 44.653202,101.993843 45.478897,102.490829 
	C44.531677,102.823608 43.429111,103.640999 42.666901,103.396660 
	C40.535267,102.713326 38.544392,101.590904 36.254498,100.400803 
z"/>
<path fill="#DDE8F0" opacity="1.000000" stroke="none" 
	d="
M14.407845,80.568741 
	C15.506147,81.537979 16.694641,82.857063 17.944523,84.546143 
	C17.862534,85.049706 17.719154,85.183266 17.281857,85.313507 
	C16.157970,83.846313 15.328005,82.382454 14.407845,80.568741 
z"/>
<path fill="#192837" opacity="1.000000" stroke="none" 
	d="
M26.827787,57.086685 
	C25.849476,56.226452 24.878244,54.990181 23.901697,53.407150 
	C24.875875,54.277142 25.855371,55.493893 26.827787,57.086685 
z"/>
<path fill="#67D4D7" opacity="1.000000" stroke="none" 
	d="
M37.206837,48.398224 
	C36.820526,48.966915 36.145245,49.733665 35.469963,50.500416 
	C35.089058,50.113842 34.708153,49.727268 34.327248,49.340698 
	C35.190788,49.092560 36.054325,48.844425 37.206837,48.398224 
z"/>
<path fill="#0B3545" opacity="1.000000" stroke="none" 
	d="
M26.070484,93.096939 
	C26.854622,93.594200 27.490519,94.372238 28.181664,95.469986 
	C27.465355,94.985710 26.693800,94.181717 26.070484,93.096939 
z"/>
<path fill="#204055" opacity="1.000000" stroke="none" 
	d="
M55.967499,90.723572 
	C55.518269,90.693825 55.036537,90.387650 54.554806,90.081474 
	C54.733543,89.882874 54.912285,89.684273 55.091019,89.485664 
	C55.372341,89.806160 55.653664,90.126656 55.967499,90.723572 
z"/>
<path fill="#62B5C6" opacity="1.000000" stroke="none" 
	d="
M47.032196,95.297363 
	C46.971432,95.035301 47.442879,94.953453 47.682076,94.954605 
	C47.645164,95.156982 47.369061,95.358200 47.032196,95.297363 
z"/>
<path fill="#064560" opacity="1.000000" stroke="none" 
	d="
M28.872829,83.563492 
	C28.859970,83.744835 28.708584,83.838249 28.293110,83.967438 
	C28.127527,83.633904 28.362623,83.458023 28.872829,83.563492 
z"/>
<path fill="#253749" opacity="1.000000" stroke="none" 
	d="
M56.467896,58.840542 
	C56.926849,58.931641 57.245335,59.210369 57.631008,59.799911 
	C57.468262,60.015926 57.238327,59.921139 56.673626,59.661583 
	C56.338860,59.496811 56.327431,59.028175 56.467896,58.840542 
z"/>
<path fill="#192837" opacity="1.000000" stroke="none" 
	d="
M23.942146,47.896172 
	C23.870192,47.876030 24.282223,48.140602 24.282223,48.140602 
	C24.282223,48.140602 23.960173,48.097172 23.919571,47.973412 
	C23.878967,47.849655 24.014103,47.916317 23.942146,47.896172 
z"/>
<path fill="#288475" opacity="1.000000" stroke="none" 
	d="
M35.584808,33.955605 
	C35.386520,34.183826 35.151810,34.113903 34.848862,33.781750 
	C35.038750,33.486668 35.294666,33.532646 35.584808,33.955605 
z"/>
<path fill="#DDE8F0" opacity="1.000000" stroke="none" 
	d="
M15.947631,73.519318 
	C15.430078,75.166901 14.712983,76.567871 13.825684,78.337555 
	C12.439222,74.731834 11.222967,70.757393 10.078573,66.381638 
	C11.113113,66.396858 12.075792,66.813377 13.222864,67.597748 
	C14.187534,69.734634 14.967812,71.503662 15.947631,73.519318 
z"/>
<path fill="#D9E4EA" opacity="1.000000" stroke="none" 
	d="
M7.076530,52.642902 
	C10.102502,50.894745 11.821877,52.066532 12.211824,54.815598 
	C12.309201,55.502087 10.508101,57.134911 9.541311,57.166630 
	C6.791135,57.256855 5.845209,55.601791 7.076530,52.642902 
z"/>
<path fill="#192837" opacity="1.000000" stroke="none" 
	d="
M14.442800,57.996689 
	C14.040299,58.635612 13.321806,59.287025 12.297330,59.894535 
	C12.703168,59.236813 13.414988,58.622993 14.442800,57.996689 
z"/>
<path fill="#DDE8F0" opacity="1.000000" stroke="none" 
	d="
M10.547677,60.694317 
	C10.705291,60.892281 10.593709,61.243530 10.288811,61.798843 
	C10.156489,61.617802 10.217485,61.232704 10.547677,60.694317 
z"/>
<path fill="#0F394C" opacity="1.000000" stroke="none" 
	d="
M53.464203,34.112770 
	C52.441822,34.033634 51.832794,33.901199 51.039566,33.119816 
	C50.255642,29.950266 49.655926,27.429667 49.056210,24.909065 
	C51.098286,25.546179 53.140362,26.183294 55.215515,26.453686 
	C56.510876,25.316250 57.773155,24.545538 59.019489,23.388264 
	C60.064491,22.978016 61.125443,22.954330 62.833694,23.111671 
	C65.126793,24.410915 66.772598,25.529137 68.418404,26.647358 
	C66.645035,26.980349 64.871674,27.313339 63.004272,27.663986 
	C63.904980,31.935324 66.763489,33.449413 70.944138,33.088371 
	C72.750961,33.718769 74.557785,34.349171 76.703705,34.974617 
	C77.305008,35.172062 77.567207,35.374462 77.893715,36.158051 
	C76.856308,42.069458 74.738113,35.844814 73.542908,36.843536 
	C73.983627,40.498001 74.395973,43.917240 74.872559,47.869110 
	C74.649300,47.833412 75.439034,47.959686 76.148460,48.462898 
	C76.888924,50.966309 77.709686,53.092777 78.196396,55.061691 
	C76.570496,53.935608 75.278641,52.967091 73.701096,51.871868 
	C72.243118,51.844978 71.070824,51.944798 69.898521,52.044617 
	C69.181488,52.024155 68.464447,52.003693 67.306381,51.598343 
	C65.703712,50.771797 64.542061,50.330143 63.380417,49.888489 
	C63.307594,48.461628 63.234772,47.034767 63.135246,45.084698 
	C64.997292,45.084698 66.569984,45.084698 68.799667,45.264557 
	C72.954468,43.775116 73.123772,40.140297 69.845512,37.096375 
	C67.038391,35.784657 64.231270,34.472942 61.163044,33.039219 
	C59.143799,33.321991 56.510681,33.690735 53.464203,34.112770 
z"/>
<path fill="#B4E8ED" opacity="1.000000" stroke="none" 
	d="
M71.241081,32.851364 
	C66.763489,33.449413 63.904980,31.935324 63.004272,27.663986 
	C64.871674,27.313339 66.645035,26.980349 68.418404,26.647358 
	C66.772598,25.529137 65.126793,24.410915 63.106903,23.164076 
	C63.874317,22.144302 65.015823,21.253149 66.525528,20.360277 
	C73.214066,24.125114 74.373207,27.183973 71.241081,32.851364 
z"/>
<path fill="#27475C" opacity="1.000000" stroke="none" 
	d="
M75.607521,13.032667 
	C75.966545,14.090031 75.963722,15.149402 75.918175,16.605194 
	C74.977295,17.091953 74.079140,17.182289 72.817955,17.335125 
	C72.454918,17.397625 72.386398,17.567444 72.386398,17.567444 
	C72.365990,17.194998 72.345581,16.822554 72.156128,16.220242 
	C73.073288,15.005141 74.159485,14.019908 75.607521,13.032667 
z"/>
<path fill="#F8FCFC" opacity="1.000000" stroke="none" 
	d="
M72.378418,17.447937 
	C72.301918,17.498251 72.447624,17.552572 72.417007,17.560009 
	C72.386398,17.567444 72.454918,17.397625 72.378418,17.447937 
z"/>
<path fill="#143445" opacity="1.000000" stroke="none" 
	d="
M69.944283,52.445454 
	C71.070824,51.944798 72.243118,51.844978 73.699570,52.286392 
	C75.211967,55.478680 70.513885,58.933083 74.948990,61.452946 
	C68.650574,65.146965 74.472084,68.491249 74.073990,72.354393 
	C78.189003,71.299797 81.127411,65.465202 84.926979,71.337349 
	C83.912384,72.520004 82.984108,73.361496 81.629562,74.129486 
	C78.749435,74.719902 75.762726,74.727699 73.959167,76.192383 
	C70.780876,78.773476 73.957230,81.302330 75.128143,83.743546 
	C74.283798,83.845428 73.199982,84.323555 72.645210,83.970467 
	C71.508438,83.246964 70.655495,82.077507 69.348999,81.050179 
	C65.548653,79.304703 68.913536,78.999184 70.131546,77.699799 
	C71.791245,71.926239 71.520866,67.105705 65.926369,64.220474 
	C65.953880,63.684311 65.981392,63.148148 66.045685,62.211224 
	C68.164963,63.533695 69.884300,63.300068 70.200310,60.476501 
	C70.480576,57.972309 70.086464,55.392643 69.944283,52.445454 
z"/>
<path fill="#F0F9FA" opacity="1.000000" stroke="none" 
	d="
M75.414017,83.908913 
	C73.957230,81.302330 70.780876,78.773476 73.959167,76.192383 
	C75.762726,74.727699 78.749435,74.719902 81.887596,74.351135 
	C83.441650,75.857742 84.311401,77.069199 85.181152,78.280655 
	C85.098946,78.653694 85.016739,79.026726 84.655243,79.825996 
	C84.163254,80.507881 84.056175,80.802002 84.054741,81.134598 
	C84.054741,81.134598 83.943977,81.551117 83.668694,81.895935 
	C83.173325,82.486534 83.053940,82.774117 83.035271,83.103516 
	C82.924858,83.473763 82.814438,83.844002 82.641830,84.497879 
	C82.579651,84.781502 82.277931,84.859566 81.907059,85.061035 
	C81.381569,85.577011 81.226952,85.891518 81.072342,86.206024 
	C81.072342,86.206032 80.928284,86.591591 80.638939,86.857468 
	C80.141685,87.293579 79.999336,87.507439 79.922531,87.764923 
	C79.751389,87.860664 79.580246,87.956413 79.119843,88.107758 
	C77.787010,86.800331 76.743446,85.437309 75.414017,83.908913 
z"/>
<path fill="#C3F1F4" opacity="1.000000" stroke="none" 
	d="
M65.639236,64.193909 
	C71.520866,67.105705 71.791245,71.926239 70.425690,77.570206 
	C70.016167,77.276794 69.845222,76.667877 69.679993,75.392410 
	C67.658310,71.701523 65.630913,68.677200 63.603516,65.652870 
	C64.186378,65.157700 64.769241,64.662529 65.639236,64.193909 
z"/>
<path fill="#55B8B6" opacity="1.000000" stroke="none" 
	d="
M63.290173,65.701828 
	C65.630913,68.677200 67.658310,71.701523 69.555725,75.099434 
	C66.921913,72.532181 64.418083,69.591347 61.824718,66.304306 
	C62.149067,65.889000 62.562950,65.819893 63.290173,65.701828 
z"/>
<path fill="#48AFB0" opacity="1.000000" stroke="none" 
	d="
M59.627319,66.292862 
	C59.258465,66.037903 59.255058,65.819893 59.286278,65.277847 
	C59.864498,65.192535 60.408092,65.431244 61.195938,65.860359 
	C60.957718,66.143784 60.475246,66.236794 59.627319,66.292862 
z"/>
<path fill="#DAF4F6" opacity="1.000000" stroke="none" 
	d="
M78.530441,55.219250 
	C77.709686,53.092777 76.888924,50.966309 76.356163,48.462635 
	C76.644165,48.085434 77.012352,47.893196 77.287750,47.902081 
	C77.768448,47.620552 77.973747,47.330139 78.464691,46.868759 
	C79.246933,45.451782 79.743538,44.205776 80.240150,42.959770 
	C81.816032,45.105370 83.391907,47.250969 85.050552,49.748161 
	C85.133324,50.099751 84.949684,50.495068 84.861237,50.694283 
	C84.155510,51.963921 83.538223,53.034344 82.601357,54.580116 
	C81.189903,55.351761 80.098030,55.648060 78.990616,55.788528 
	C78.898026,55.418343 78.749817,55.280525 78.530441,55.219250 
z"/>
<path fill="#144E5E" opacity="1.000000" stroke="none" 
	d="
M77.012352,47.893196 
	C77.012352,47.893196 76.644165,48.085434 76.436462,48.085693 
	C75.439034,47.959686 74.649300,47.833412 74.872559,47.869110 
	C74.395973,43.917240 73.983627,40.498001 73.542908,36.843536 
	C74.738113,35.844814 76.856308,42.069458 77.981888,36.394814 
	C78.719322,38.098900 79.432899,40.147415 80.193314,42.577850 
	C79.743538,44.205776 79.246933,45.451782 78.240356,46.968578 
	C77.428886,47.389046 77.189545,47.606991 77.012352,47.893196 
z"/>
<path fill="#ECF5F6" opacity="1.000000" stroke="none" 
	d="
M85.013290,70.996193 
	C81.127411,65.465202 78.189003,71.299797 74.073990,72.354393 
	C74.472084,68.491249 68.650574,65.146965 74.918427,61.440247 
	C75.047714,61.102371 75.056969,61.167889 75.310303,61.059662 
	C75.763817,60.652332 75.963989,60.353226 76.106079,60.051407 
	C76.047989,60.048698 76.052979,60.164898 76.306564,60.056896 
	C76.760422,59.649788 76.960686,59.350681 77.334816,59.035984 
	C77.760551,59.021442 77.963676,58.922462 78.528931,58.698051 
	C80.287437,58.414730 81.635086,58.156811 82.982742,57.898891 
	C84.173729,58.742035 85.364716,59.585178 86.785294,61.081352 
	C86.347679,64.821655 85.680481,67.908920 85.013290,70.996193 
z"/>
<path fill="#2BD9CB" opacity="1.000000" stroke="none" 
	d="
M90.014336,60.961243 
	C89.678352,66.689537 89.342377,72.417839 88.973129,78.541107 
	C88.438805,77.763390 87.937737,76.590706 87.255234,74.874908 
	C87.185463,73.901871 87.297112,73.471962 87.732468,72.878342 
	C88.146072,69.491478 88.235970,66.268333 88.268013,62.730701 
	C88.187263,61.992680 88.164352,61.569138 88.141449,61.145596 
	C88.297165,61.072994 88.452881,61.000393 89.065781,60.893120 
	C89.686760,60.892712 89.850548,60.926975 90.014336,60.961243 
z"/>
<path fill="#BDF7F9" opacity="1.000000" stroke="none" 
	d="
M87.408760,73.042046 
	C87.297112,73.471962 87.185463,73.901871 87.056168,74.665466 
	C86.572029,75.944786 86.105530,76.890419 85.410095,78.058350 
	C84.311401,77.069199 83.441650,75.857742 82.313858,74.424637 
	C82.984108,73.361496 83.912384,72.520004 84.926979,71.337349 
	C85.680481,67.908920 86.347679,64.821655 87.017029,61.296555 
	C87.216927,60.862114 87.414665,60.865501 87.876923,61.007240 
	C88.164352,61.569138 88.187263,61.992680 88.182503,63.155121 
	C87.906143,66.943367 87.657448,69.992706 87.408760,73.042046 
z"/>
<path fill="#0F394C" opacity="1.000000" stroke="none" 
	d="
M82.991318,57.507271 
	C81.635086,58.156811 80.287437,58.414730 78.587173,58.336388 
	C78.491760,57.314877 78.748962,56.629616 79.006165,55.944359 
	C80.098030,55.648060 81.189903,55.351761 82.598373,54.911964 
	C82.943275,55.550865 82.971581,56.333260 82.991318,57.507271 
z"/>
<path fill="#275C68" opacity="1.000000" stroke="none" 
	d="
M90.068588,60.766876 
	C89.850548,60.926975 89.686760,60.892712 89.290085,60.766205 
	C89.245483,60.430878 89.488754,60.271931 90.009132,60.190437 
	C90.231255,60.183743 90.122849,60.572510 90.068588,60.766876 
z"/>
<path fill="#19859C" opacity="1.000000" stroke="none" 
	d="
M19.862532,41.127018 
	C19.924761,41.317307 19.769844,41.618340 19.331261,41.956810 
	C19.178513,41.688076 19.377777,41.435917 19.862532,41.127018 
z"/>
<path fill="#072334" opacity="1.000000" stroke="none" 
	d="
M59.010536,84.992867 
	C59.121933,85.124290 59.220226,85.266762 59.318520,85.409233 
	C59.237286,85.366516 59.156052,85.323807 59.025112,85.156044 
	C58.975407,85.030998 58.997425,85.003914 59.010536,84.992867 
z"/>
<path fill="#194256" opacity="1.000000" stroke="none" 
	d="
M65.484177,100.473541 
	C65.517776,100.457138 65.450584,100.489944 65.484177,100.473541 
z"/>
<path fill="#BDF7F9" opacity="1.000000" stroke="none" 
	d="
M83.244843,82.974243 
	C83.053940,82.774117 83.173325,82.486534 83.575989,82.090477 
	C83.808647,82.292694 83.707260,82.594284 83.244843,82.974243 
z"/>
<path fill="#BDF7F9" opacity="1.000000" stroke="none" 
	d="
M84.262642,80.998459 
	C84.056175,80.802002 84.163254,80.507881 84.553818,80.094406 
	C84.803070,80.289841 84.716034,80.598419 84.262642,80.998459 
z"/>
<path fill="#BDF7F9" opacity="1.000000" stroke="none" 
	d="
M80.133286,87.719154 
	C79.999336,87.507439 80.141685,87.293579 80.517319,87.023483 
	C80.727615,87.244621 80.613953,87.494545 80.133286,87.719154 
z"/>
<path fill="#BDF7F9" opacity="1.000000" stroke="none" 
	d="
M81.311218,86.075333 
	C81.226952,85.891518 81.381569,85.577011 81.763046,85.120544 
	C81.843307,85.300606 81.696709,85.622620 81.311218,86.075333 
z"/>
<path fill="#4A6272" opacity="1.000000" stroke="none" 
	d="
M69.889847,37.510239 
	C73.123772,40.140297 72.954468,43.775116 69.219460,45.195412 
	C69.299561,42.605640 69.616875,40.264870 69.889847,37.510239 
z"/>
<path fill="#4A6272" opacity="1.000000" stroke="none" 
	d="
M63.266777,50.231049 
	C64.542061,50.330143 65.703712,50.771797 66.954071,51.530746 
	C65.842216,51.130318 63.176144,54.885387 63.266777,50.231049 
z"/>
<path fill="#DDE8F0" opacity="1.000000" stroke="none" 
	d="
M18.143288,75.767715 
	C17.366388,75.474297 16.771137,74.951447 16.168339,74.101074 
	C17.188063,73.819740 18.215336,73.865936 19.629740,73.933456 
	C19.452894,74.482620 18.888916,75.010460 18.143288,75.767715 
z"/>
<path fill="#36EDE9" opacity="1.000000" stroke="none" 
	d="
M39.009277,98.841202 
	C38.527294,99.162727 38.092831,99.104263 37.330486,99.004913 
	C34.677296,96.236061 32.351986,93.508095 29.948572,90.442368 
	C30.986410,89.999702 32.732941,89.393501 33.113983,89.872826 
	C35.275612,92.591972 37.110630,95.570770 39.009277,98.841202 
z"/>
<path fill="#172B3C" opacity="1.000000" stroke="none" 
	d="
M48.943027,24.585773 
	C49.655926,27.429667 50.255642,29.950266 50.867737,32.857788 
	C49.609119,33.089600 48.305782,32.674072 47.073071,32.827179 
	C43.032417,33.329037 40.755451,31.636654 39.940113,27.326080 
	C42.533329,21.676674 44.037563,21.225483 48.943027,24.585773 
z"/>
<path fill="#17465B" opacity="1.000000" stroke="none" 
	d="
M78.990616,55.788525 
	C78.748962,56.629616 78.491760,57.314877 78.176315,58.361794 
	C77.963676,58.922462 77.760551,59.021442 77.098190,59.164032 
	C76.476128,59.593410 76.264557,59.879154 76.052979,60.164898 
	C76.052979,60.164898 76.047989,60.048698 75.864883,60.174911 
	C75.473503,60.590046 75.265236,60.878967 75.056969,61.167889 
	C75.056969,61.167889 75.047714,61.102371 75.078278,61.115067 
	C70.513885,58.933083 75.211967,55.478680 73.985245,52.413097 
	C75.278641,52.967091 76.570496,53.935608 78.196396,55.061691 
	C78.749817,55.280525 78.898026,55.418343 78.990616,55.788525 
z"/>
<path fill="#0F394C" opacity="1.000000" stroke="none" 
	d="
M77.287750,47.902081 
	C77.189545,47.606991 77.428886,47.389046 77.954712,47.139549 
	C77.973747,47.330139 77.768448,47.620552 77.287750,47.902081 
z"/>
<path fill="#143445" opacity="1.000000" stroke="none" 
	d="
M76.306564,60.056896 
	C76.264557,59.879154 76.476128,59.593410 76.924332,59.179619 
	C76.960686,59.350681 76.760422,59.649788 76.306564,60.056896 
z"/>
<path fill="#143445" opacity="1.000000" stroke="none" 
	d="
M75.310303,61.059662 
	C75.265236,60.878967 75.473503,60.590046 75.922974,60.177624 
	C75.963989,60.353226 75.763817,60.652332 75.310303,61.059662 
z"/>
<path fill="#49CFC9" opacity="1.000000" stroke="none" 
	d="
M87.732468,72.878342 
	C87.657448,69.992706 87.906143,66.943367 88.240349,63.469604 
	C88.235970,66.268333 88.146072,69.491478 87.732468,72.878342 
z"/>
</svg>